<?xml version="1.0" encoding="utf-8"?>
<!-- Generator: Adobe Illustrator 26.0.1, SVG Export Plug-In . SVG Version: 6.00 Build 0)  -->
<svg id="icon-bulb-off" version="1.1" xmlns="http://www.w3.org/2000/svg" xmlns:xlink="http://www.w3.org/1999/xlink" x="0px" y="0px" viewBox="0 0 1200 1200" style="enable-background:new 0 0 1200 1200;" xml:space="preserve">
  <g>
    <path style="fill: var(--bulb-icon-color-bulb)" d="M449.8,901.9c32.3,37.7,35.4,57,35.4,130.1c0,17.9,14.5,32.4,32.4,32.4c17.9,0,32.4-14.5,32.4-32.4
		c0-80.1-4.6-118.2-51-172.3c-143.5-167.4,39.2-391,105.1-461.9c66.5,70.8,251,294.5,107.6,461.9c-46.4,54.1-51,92.1-51,172.3
		c0,17.9,14.5,32.4,32.4,32.4s32.4-14.5,32.4-32.4c0-73.1,3-92.4,35.4-130.1c169.8-198.1-13.9-462.1-134.9-574
		c-6.2-5.8-14.1-8.6-22-8.6c-7.9,0-15.9,2.9-22.1,8.7C462,439.8,280,703.8,449.8,901.9L449.8,901.9z" />
    <path style="fill: var(--bulb-icon-color-base)" d="M496,1140h216c17.9,0,32.4-14.5,32.4-32.4V978c0-17.9-14.5-32.4-32.4-32.4H496c-17.9,0-32.4,14.5-32.4,32.4v129.6
		C463.6,1125.5,478.1,1140,496,1140z" />
    <path style="fill: var(--bulb-icon-color-glare)" d="M498.5,802c4.2,11.2,16.6,16.8,27.8,12.6c11.2-4.2,16.8-16.6,12.6-27.8c-0.3-0.8-28.7-79.3,21-188.7
		c4.9-10.8,0.1-23.7-10.7-28.6c-2.9-1.3-5.9-2-8.9-2c-8.2,0-16.1,4.7-19.7,12.7C463.6,705.7,497.1,798.1,498.5,802L498.5,802z" />
  </g>
</svg>
