<?xml version="1.0" encoding="utf-8"?>
<!-- Generator: Adobe Illustrator 26.0.1, SVG Export Plug-In . SVG Version: 6.00 Build 0)  -->
<svg id="icon-bulb-on" version="1.1" xmlns="http://www.w3.org/2000/svg" xmlns:xlink="http://www.w3.org/1999/xlink" x="0px" y="0px" viewBox="0 0 1200 1200" style="enable-background:new 0 0 1200 1200;" xml:space="preserve">
  <g>
    <path style="fill: var(--bulb-icon-color-bulb)" d="M449.8,901.9c32.3,37.7,35.4,57,35.4,130.1c0,17.9,14.5,32.4,32.4,32.4c17.9,0,32.4-14.5,32.4-32.4
		c0-80.1-4.6-118.2-51-172.3c-143.5-167.4,39.2-391,105.1-461.9c66.5,70.8,251,294.5,107.6,461.9c-46.4,54.1-51,92.1-51,172.3
		c0,17.9,14.5,32.4,32.4,32.4s32.4-14.5,32.4-32.4c0-73.1,3-92.4,35.4-130.1c169.8-198.1-13.9-462.1-134.9-574
		c-6.2-5.8-14.1-8.6-22-8.6c-7.9,0-15.9,2.9-22.1,8.7C462,439.8,280,703.8,449.8,901.9L449.8,901.9z" />
    <path style="fill: var(--bulb-icon-color-base)" d="M496,1140h216c17.9,0,32.4-14.5,32.4-32.4V978c0-17.9-14.5-32.4-32.4-32.4H496c-17.9,0-32.4,14.5-32.4,32.4v129.6
		C463.6,1125.5,478.1,1140,496,1140z" />
    <path style="fill: var(--bulb-icon-color-flare-1)" d="M779.3,353.6c10.1,14.8,30.2,18.6,45,8.6l135-91.8c14.8-10.1,18.6-30.2,8.6-45c-6.3-9.2-16.5-14.2-26.8-14.2
		c-6.3,0-12.6,1.8-18.2,5.6l-135,91.8C773.1,318.7,769.3,338.8,779.3,353.6L779.3,353.6z" />
    <path style="fill: var(--bulb-icon-color-flare-2)" d="M876.6,609.7c2.4,17.7,18.6,30.2,36.4,27.8l162-21.6c17.7-2.4,30.2-18.7,27.8-36.4c-2.2-16.3-16.1-28.1-32.1-28.1
		c-1.4,0-2.9,0.1-4.3,0.3l-162,21.6C886.7,575.6,874.2,591.9,876.6,609.7L876.6,609.7z" />
    <path style="fill: var(--bulb-icon-color-flare-3)" d="M258.7,270.4l135,91.8c14.8,10.1,34.9,6.2,45-8.6c10.1-14.8,6.2-34.9-8.6-45l-135-91.8c-5.6-3.8-11.9-5.6-18.2-5.6
		c-10.4,0-20.6,5-26.8,14.2C240.1,240.2,243.9,260.3,258.7,270.4L258.7,270.4z" />
    <path style="fill: var(--bulb-icon-color-flare-4)" d="M143,615.9l162,21.6c17.8,2.4,34-10.1,36.4-27.8c2.4-17.7-10.1-34-27.8-36.4l-162-21.6c-1.5-0.2-2.9-0.3-4.3-0.3
		c-16,0-29.9,11.8-32.1,28.1C112.8,597.2,125.3,613.5,143,615.9L143,615.9z" />
    <path style="fill: var(--bulb-icon-color-glare)" d="M498.5,802c4.2,11.2,16.6,16.8,27.8,12.6c11.2-4.2,16.8-16.6,12.6-27.8c-0.3-0.8-28.7-79.3,21-188.7
		c4.9-10.8,0.1-23.7-10.7-28.6c-2.9-1.3-5.9-2-8.9-2c-8.2,0-16.1,4.7-19.7,12.7C463.6,705.7,497.1,798.1,498.5,802L498.5,802z" />
    <path style="fill: var(--bulb-icon-color-flare-5)" d="M595.5,265.2c17.9,0,32.4-14.5,32.4-32.4V92.4c0-17.9-14.5-32.4-32.4-32.4s-32.4,14.5-32.4,32.4v140.4
		C563.1,250.7,577.6,265.2,595.5,265.2L595.5,265.2z" />
  </g>
</svg>
