<?xml version="1.0" standalone="no"?>
<!DOCTYPE svg PUBLIC "-//W3C//DTD SVG 20010904//EN"
 "http://www.w3.org/TR/2001/REC-SVG-20010904/DTD/svg10.dtd">
<svg version="1.0" xmlns="http://www.w3.org/2000/svg"
 width="700.000000pt" height="700.000000pt" viewBox="0 0 700.000000 700.000000"
 preserveAspectRatio="xMidYMid meet">
<metadata>
Created by potrace 1.14, written by Peter Selinger 2001-2017
</metadata>
<g transform="translate(0.000000,700.000000) scale(0.100000,-0.100000)"
fill="#000000" stroke="none">
<path d="M3394 6631 c-47 -22 -88 -70 -101 -121 -5 -19 -9 -233 -8 -475 l1
-440 24 -43 c25 -44 79 -84 132 -96 77 -18 184 45 209 123 8 24 12 168 12 475
-1 486 0 485 -63 545 -55 52 -135 64 -206 32z"/>
<path d="M1566 5763 c-39 -10 -93 -54 -115 -93 -29 -52 -30 -123 -2 -177 22
-44 35 -54 366 -279 105 -70 244 -166 310 -211 219 -151 251 -164 334 -136 80
26 131 95 131 175 0 48 -27 115 -56 139 -17 14 -231 160 -399 273 -33 22 -90
61 -126 88 -37 26 -71 48 -77 48 -6 0 -12 4 -14 8 -1 4 -55 42 -119 85 -97 64
-124 78 -165 81 -27 2 -58 2 -68 -1z"/>
<path d="M5438 5760 c-26 -8 -178 -108 -622 -410 -237 -161 -260 -180 -283
-225 -73 -139 73 -311 222 -262 25 8 144 81 180 110 9 8 290 198 557 378 64
43 128 93 142 109 47 57 56 142 21 210 -17 33 -74 82 -102 87 -41 9 -90 10
-115 3z"/>
<path d="M3465 5128 c-61 -16 -294 -254 -484 -491 -287 -360 -513 -758 -634
-1117 -43 -129 -82 -278 -93 -355 -3 -16 -7 -41 -10 -54 -26 -120 -26 -429 2
-591 8 -52 33 -148 52 -205 9 -27 17 -52 18 -55 16 -59 106 -239 160 -323 45
-70 129 -181 168 -222 34 -36 114 -164 132 -210 l17 -45 -28 -27 c-60 -61 -59
-51 -60 -498 -1 -226 3 -426 8 -445 13 -52 54 -100 103 -121 41 -19 73 -19
721 -17 l678 3 41 27 c27 17 50 44 64 74 23 46 23 50 23 463 -1 450 0 448 -55
508 -23 25 -21 38 24 130 24 49 144 214 177 243 3 3 17 21 30 40 181 257 272
484 309 770 9 73 9 328 0 411 -60 532 -356 1137 -839 1713 -108 129 -335 358
-376 379 -42 22 -100 28 -148 15z m164 -565 c81 -90 243 -297 320 -408 260
-372 433 -753 486 -1065 22 -131 25 -157 25 -270 0 -122 -4 -163 -26 -268 -43
-210 -128 -377 -298 -586 -126 -156 -194 -278 -230 -416 l-18 -65 -351 1
c-194 1 -354 2 -357 3 -3 0 -11 22 -19 48 -41 153 -107 271 -246 443 -95 117
-135 177 -186 281 -53 105 -103 262 -114 355 -4 32 -9 68 -11 79 -6 27 -5 220
1 270 10 89 17 133 35 210 21 91 72 254 97 312 9 21 18 43 19 50 1 6 28 65 60
130 163 335 373 638 678 980 l29 33 36 -39 c20 -22 51 -56 70 -78z"/>
<path d="M3092 3673 c-37 -18 -79 -96 -131 -247 -77 -220 -112 -416 -115 -641
-2 -121 4 -196 28 -340 6 -40 28 -111 43 -138 35 -69 126 -86 188 -35 47 39
52 76 26 186 -70 300 -29 673 110 993 36 84 41 125 20 168 -17 37 -71 71 -111
71 -14 0 -40 -8 -58 -17z"/>
<path d="M835 3780 c-130 -20 -201 -150 -144 -267 27 -56 90 -100 155 -107 27
-4 60 -8 74 -11 14 -2 45 -7 70 -9 25 -3 61 -7 80 -10 56 -8 181 -25 228 -31
23 -3 61 -8 85 -11 54 -8 70 -10 137 -18 30 -4 66 -9 80 -11 111 -17 205 -26
235 -22 116 16 189 148 142 258 -33 77 -87 109 -212 124 -27 3 -66 8 -85 11
-169 23 -214 30 -287 39 -96 11 -210 26 -233 30 -14 2 -81 12 -150 20 -68 9
-127 18 -130 19 -3 1 -23 -1 -45 -4z"/>
<path d="M6050 3759 c-107 -14 -215 -29 -240 -32 -25 -4 -67 -9 -95 -12 -27
-3 -61 -7 -75 -10 -14 -2 -43 -7 -65 -9 -58 -7 -126 -17 -155 -21 -14 -2 -61
-9 -104 -15 -94 -12 -130 -31 -170 -88 -72 -102 -19 -246 105 -283 38 -12 118
-5 409 36 95 14 181 25 218 30 69 8 125 16 152 20 14 2 66 9 115 15 122 15
142 19 179 34 76 32 120 119 104 205 -10 54 -27 81 -70 115 -57 43 -94 45
-308 15z"/>
</g>
</svg>
