<?xml version="1.0" encoding="UTF-8"?>
<svg id="icon-bulb-orig" width="1200pt" height="1200pt" version="1.1" viewBox="0 0 1200 1200" xmlns="http://www.w3.org/2000/svg">
  <g>
    <path d="m768.21 298.12c-32.34-37.738-35.387-56.988-35.387-130.12 0-17.891-14.508-32.398-32.398-32.398-17.891 0-32.398 14.508-32.398 32.398 0 80.148 4.6211 118.18 51.012 172.29 143.46 167.38-39.18 391.01-105.12 461.9-66.457-70.812-251.03-294.54-107.58-461.89 46.391-54.121 51.012-92.148 51.012-172.29 0-17.891-14.508-32.398-32.398-32.398s-32.398 14.508-32.398 32.398c0 73.129-3.0469 92.375-35.387 130.12-169.82 198.12 13.945 462.14 134.86 574.04 6.2148 5.7617 14.113 8.6406 22.008 8.6406 7.9453 0 15.887-2.9141 22.117-8.7227 119.89-111.93 301.83-375.93 132.06-573.97z" />
    <path d="m722.02 60h-216c-17.891 0-32.387 14.508-32.387 32.398v129.6c0 17.891 14.496 32.398 32.387 32.398h216c17.902 0 32.398-14.508 32.398-32.398v-129.6c0-17.891-14.492-32.398-32.398-32.398z" />
    <path d="m438.7 846.38c-10.055-14.809-30.227-18.648-45.012-8.5781l-135 91.801c-14.785 10.055-18.637 30.203-8.5664 45 6.2539 9.2383 16.453 14.195 26.809 14.195 6.2656 0 12.625-1.8125 18.191-5.6172l135-91.801c14.793-10.055 18.637-30.191 8.5781-45z" />
    <path d="m341.41 590.32c-2.3633-17.734-18.602-30.203-36.395-27.84l-162 21.602c-17.746 2.3633-30.203 18.66-27.828 36.395 2.1719 16.273 16.094 28.117 32.074 28.117 1.4141 0 2.8672-0.097656 4.3203-0.27734l162-21.602c17.738-2.3633 30.195-18.66 27.828-36.395z" />
    <path d="m959.32 929.62-135-91.801c-14.797-10.055-34.945-6.2148-45.012 8.5781-10.055 14.797-6.2266 34.945 8.5781 45l135 91.801c5.5781 3.793 11.902 5.6172 18.18 5.6172 10.367 0 20.566-4.9688 26.82-14.195 10.07-14.809 6.2305-34.945-8.5664-45z" />
    <path d="m1075 584.09-162-21.602c-17.785-2.3516-34.031 10.105-36.395 27.84-2.3633 17.734 10.094 34.031 27.828 36.395l162 21.602c1.4531 0.19141 2.8906 0.27734 4.3203 0.27734 15.984 0 29.902-11.832 32.074-28.117 2.3633-17.738-10.082-34.031-27.828-36.395z" />
    <path d="m719.48 398.02c-4.1992-11.172-16.633-16.824-27.805-12.637-11.172 4.1875-16.824 16.633-12.648 27.805 0.28906 0.78125 28.691 79.285-21.035 188.68-4.9336 10.848-0.13281 23.664 10.738 28.598 2.8789 1.3203 5.9141 1.957 8.9141 1.957 8.207 0 16.055-4.7266 19.68-12.684 57.039-125.49 23.609-217.84 22.156-221.71z" />
    <path d="m622.5 934.8c-17.891 0-32.398 14.496-32.398 32.387v140.4c0 17.891 14.508 32.398 32.398 32.398s32.398-14.508 32.398-32.398v-140.39c0-17.902-14.508-32.398-32.398-32.398z" />
  </g>
</svg>
